PathFileType  4	(X/Y/Z) C:\Users\antoi\Documents\MyRepositories\mobilecap\ResultsAnalysis
DataRate	CameraRate	NumFrames	NumMarkers	Units	OrigDataRate	OrigDataStartFrame	OrigNumFrames
100.0	100.0	4	51	mm	100.0	573	2288
Frame#	Time	r_knee			r_shank_antsup			r_ankle			r_calc			r_5meta			r_toe			L_knee			L_shank_antsup			L_ankle			L_calc			L_5meta			L_toe			r_sh2			r_sh3			r_sh4			L_sh2			L_sh3			r_thigh1			r_thigh2			r_thigh3			r_thigh4			r_thigh5			L_thigh1			L_thigh2			L_thigh3			L_thigh4			r.ASIS			r.PSIS			L.ASIS			L.PSIS			C7			R_Shoulder			L_Shoulder			R_Sternum			L_Sternum			R_humerus			R_elbow_med			R_elbow_lat			R_forearm			R_wrist_radius			R_wrist_ulna			L_humerus			L_elbow_med			L_elbow_lat			L_forearm			L_wrist_radius			L_wrist_ulna			R_HJC			L_HJC			R_HJC_reg			L_HJC_reg			
		X1	Y1	Z1	X2	Y2	Z2	X3	Y3	Z3	X4	Y4	Z4	X5	Y5	Z5	X6	Y6	Z6	X7	Y7	Z7	X8	Y8	Z8	X9	Y9	Z9	X10	Y10	Z10	X11	Y11	Z11	X12	Y12	Z12	X13	Y13	Z13	X14	Y14	Z14	X15	Y15	Z15	X16	Y16	Z16	X17	Y17	Z17	X18	Y18	Z18	X19	Y19	Z19	X20	Y20	Z20	X21	Y21	Z21	X22	Y22	Z22	X23	Y23	Z23	X24	Y24	Z24	X25	Y25	Z25	X26	Y26	Z26	X27	Y27	Z27	X28	Y28	Z28	X29	Y29	Z29	X30	Y30	Z30	X31	Y31	Z31	X32	Y32	Z32	X33	Y33	Z33	X34	Y34	Z34	X35	Y35	Z35	X36	Y36	Z36	X37	Y37	Z37	X38	Y38	Z38	X39	Y39	Z39	X40	Y40	Z40	X41	Y41	Z41	X42	Y42	Z42	X43	Y43	Z43	X44	Y44	Z44	X45	Y45	Z45	X46	Y46	Z46	X47	Y47	Z47	X48	Y48	Z48	X49	Y49	Z49	X50	Y50	Z50	X51	Y51	Z51	

573	5.72000000	-104.06434	453.18648	-426.20999	-83.89550	336.84075	-435.10639	-233.88438	94.16791	-444.26354	-287.72347	53.86127	-491.62745	-129.50262	40.19050	-401.85463	-91.40116	56.11069	-443.52715	-100.24077	453.09859	-786.86799	-76.21224	338.62628	-752.59339	-243.55129	96.20779	-797.28573	-296.53759	57.08605	-756.15062	-132.48152	37.08503	-818.83945	-92.52416	54.26989	-765.66152	-125.53247	231.58996	-443.97245	-140.36800	353.06151	-387.89382	-193.54257	254.89518	-404.42109	-121.63219	380.66993	-818.63905	-167.64671	269.43028	-837.32031	-126.53844	763.49837	-439.72015	-84.87085	663.81388	-429.61497	-121.68874	623.74299	-390.10742	-225.00420	723.99041	-403.61724	-177.18167	619.89096	-391.73192	-133.40390	746.30112	-788.33195	-75.64562	624.86614	-791.47139	-238.68436	711.25359	-812.62641	-175.90550	583.61201	-812.12679	-125.17552	882.71281	-485.15584	-292.55744	967.18239	-553.74015	-124.67593	879.98777	-732.00250	-296.48504	967.22661	-670.92138	-98.69913	1384.24374	-602.67371	-55.56383	1341.96090	-452.95141	-40.27386	1348.18122	-756.02308	3.91603	1295.78577	-583.41697	5.24664	1294.04462	-626.88345	-95.84561	1229.06133	-378.44502	-270.89842	1093.99967	-406.61367	-223.89780	1093.91287	-336.87407	-113.84464	1064.39878	-386.53634	-31.02415	1065.91337	-445.34172	-31.26168	1029.28932	-439.28130	-81.65663	1214.19972	-836.56875	-241.95243	1083.58781	-812.04639	-207.87723	1078.66937	-884.86386	-113.12595	1051.17818	-836.35003	-16.72957	1050.73478	-751.67228	-23.24975	1018.15488	-750.34199	-229.57491	834.45892	-511.25668	-226.22773	828.02076	-700.49521	-210.04273	830.98694	-516.93000	-215.50050	831.04847	-679.76757	
574	5.73000000	-105.20988	453.63793	-425.94887	-85.03106	337.30511	-434.78722	-234.01643	94.09259	-444.18344	-287.75986	53.77469	-491.62254	-129.51434	40.19529	-401.78731	-91.46356	56.07639	-443.55651	-101.30122	453.35066	-786.82234	-77.40644	339.08372	-752.79408	-243.80674	95.82809	-797.25990	-296.64359	56.60252	-756.21074	-132.50841	36.99107	-818.87259	-92.66707	54.31464	-765.84911	-126.29799	231.79317	-443.84105	-141.64462	353.39607	-387.59193	-194.66569	255.25234	-404.09464	-123.05330	380.77022	-818.68726	-168.62576	269.54639	-837.49584	-123.74244	764.50669	-439.68182	-83.40349	664.19892	-429.54337	-120.77540	624.85789	-389.72868	-222.77263	726.20081	-403.49459	-176.30330	621.55223	-391.67794	-130.79146	747.72066	-788.40481	-74.43395	625.08443	-791.57274	-236.37248	713.65193	-812.66449	-175.29014	585.04214	-812.16734	-122.27622	885.81175	-484.84445	-290.37353	968.69363	-553.83157	-121.55232	883.17133	-731.87937	-294.18586	968.64722	-671.13087	-102.99289	1388.57966	-602.70101	-59.80586	1346.83682	-452.90778	-44.31025	1353.57386	-755.92876	0.45434	1301.55712	-583.40624	1.85461	1299.95414	-626.89938	-98.56709	1233.50982	-378.28326	-271.39952	1095.81207	-406.76961	-224.47929	1096.45469	-336.81894	-113.93333	1068.51206	-386.54270	-31.18005	1071.25047	-445.24093	-30.85747	1034.45842	-439.03756	-84.04663	1219.20180	-837.46226	-242.45317	1086.39483	-812.46031	-208.44059	1082.00459	-885.42512	-113.23844	1055.69728	-836.80162	-16.86062	1056.41137	-752.03580	-22.95075	1023.91244	-750.70561	-226.21485	836.58279	-511.24189	-222.54027	830.16044	-700.47497	-206.66430	833.32612	-516.71417	-211.96072	833.26178	-679.68123	
575	5.74000000	-106.32959	454.01639	-425.77289	-86.11539	337.70456	-434.48581	-234.15763	94.03617	-444.04656	-287.78016	53.68649	-491.62566	-129.52580	40.17049	-401.73830	-91.50588	56.03891	-443.58109	-102.45698	453.52005	-786.86116	-78.64003	339.51444	-753.02781	-244.07378	95.47034	-797.30243	-296.77714	56.13405	-756.29587	-132.57103	36.90977	-818.95917	-92.79819	54.37603	-765.97442	-126.99151	231.82274	-443.70407	-142.99764	353.75040	-387.33407	-195.63650	255.64797	-403.86732	-124.50145	380.95601	-818.84326	-169.72785	269.44631	-837.35919	-121.10277	765.33316	-439.71192	-82.05470	664.52987	-429.44730	-119.84702	625.83775	-389.28658	-220.57455	728.33202	-403.31771	-175.31003	623.04875	-391.56416	-128.16048	748.83679	-788.10474	-73.34798	625.28425	-791.96736	-234.07816	715.92932	-812.83098	-174.70125	586.36740	-812.10546	-119.42249	888.70341	-484.65307	-288.26592	969.95469	-553.82663	-118.41680	886.07790	-731.62708	-291.96205	969.93524	-671.27131	-107.34660	1392.62789	-602.62346	-64.32262	1351.37826	-453.13210	-48.23126	1358.80785	-756.02385	-2.99233	1307.04451	-583.39421	-1.51602	1305.45523	-626.72387	-101.27733	1237.70473	-378.16628	-271.98618	1097.45334	-406.81498	-225.09715	1098.74980	-336.79941	-114.08751	1072.43044	-386.41032	-31.36951	1076.33740	-445.13692	-30.52653	1039.52428	-438.91852	-86.36243	1223.86516	-837.77109	-242.91425	1088.87617	-812.87718	-208.94207	1085.14665	-886.11803	-113.38518	1059.91623	-837.28365	-17.02619	1061.86590	-752.43709	-22.73928	1029.25236	-751.03087	-222.90053	838.49192	-511.18786	-218.91514	832.10175	-700.41588	-203.25393	835.35839	-516.62746	-208.38176	835.33141	-679.56023	
576	5.75000000	-107.40941	454.38603	-425.64945	-87.13495	338.04704	-434.20899	-234.32877	93.98934	-443.93236	-287.79199	53.60755	-491.58405	-129.55691	40.12037	-401.72226	-91.53250	55.99485	-443.60942	-103.68645	453.72866	-787.00511	-79.87814	339.86789	-753.33484	-244.32879	95.17128	-797.41554	-296.90298	55.74906	-756.32200	-132.67193	36.83459	-819.08787	-92.92785	54.41569	-766.02360	-127.66715	232.00306	-443.34045	-144.25570	353.99784	-387.22431	-196.35474	255.81078	-403.84993	-125.97837	381.27276	-819.02105	-170.86997	269.34718	-837.19821	-118.56088	765.98681	-439.71607	-80.57774	664.70655	-429.16153	-118.87500	626.43527	-389.17509	-218.37026	730.30652	-403.24076	-174.31043	624.34663	-391.48668	-125.38388	749.41671	-787.85105	-72.38765	625.36273	-792.28377	-231.72308	718.11154	-813.06617	-174.13333	587.70968	-812.13732	-116.60405	891.47354	-484.51072	-286.24560	971.09957	-553.67675	-115.26513	888.94667	-731.45027	-289.79812	971.11034	-671.39182	-111.73676	1396.40594	-602.59837	-69.09356	1355.60478	-453.52570	-52.15060	1363.73523	-756.27429	-6.41264	1312.25426	-583.36331	-4.87632	1310.60850	-626.62009	-103.94084	1241.61341	-378.11874	-272.51333	1098.76685	-406.81477	-225.75806	1100.75058	-336.83142	-114.31652	1076.12212	-386.22620	-31.61288	1081.18427	-444.99724	-30.26430	1044.39942	-438.98416	-88.70374	1228.17254	-837.86444	-243.37591	1091.04546	-813.25158	-209.35507	1088.01919	-886.62146	-113.56421	1063.90572	-837.95417	-17.20519	1066.99643	-752.92428	-22.46710	1034.14014	-751.60614	-219.58109	840.25999	-511.16075	-215.31373	833.99345	-700.38670	-199.87566	837.29829	-516.61539	-204.79265	837.31318	-679.53216	
